<?xml version="1.0" standalone="no"?>
<!DOCTYPE svg PUBLIC "-//W3C//DTD SVG 20010904//EN"
 "http://www.w3.org/TR/2001/REC-SVG-20010904/DTD/svg10.dtd">
<svg version="1.0" xmlns="http://www.w3.org/2000/svg"
 width="370.000000pt" height="136.000000pt" viewBox="0 0 370.000000 136.000000"
 preserveAspectRatio="xMidYMid meet">

<g transform="translate(0.000000,136.000000) scale(0.100000,-0.100000)"
fill="#000000" stroke="none">
<path d="M150 1320 c0 -22 2 -40 4 -40 2 0 6 18 8 40 2 22 0 40 -4 40 -5 0 -8
-18 -8 -40z"/>
<path d="M451 1356 c11 -10 226 -61 324 -77 127 -20 136 -22 152 -32 6 -4 14
-3 18 3 4 6 12 6 23 0 9 -5 49 -16 87 -26 92 -21 216 -63 235 -78 22 -18 122
-60 220 -91 47 -16 87 -31 90 -35 3 -4 24 -11 46 -14 l42 -7 7 37 c7 42 29 89
45 99 18 11 40 -15 46 -55 l6 -38 92 5 c97 6 153 -5 177 -34 11 -13 10 -18
-10 -34 -13 -11 -32 -19 -43 -19 -14 0 -18 -5 -14 -16 3 -9 6 -18 6 -20 0 -2
17 -4 39 -4 36 0 39 2 44 35 3 19 4 47 1 62 -2 16 -1 24 3 18 15 -19 91 -55
117 -55 15 0 39 -6 54 -14 15 -8 56 -14 91 -14 48 0 68 -4 77 -16 6 -9 19 -16
28 -16 10 0 14 -4 11 -10 -3 -5 7 -12 22 -16 52 -11 68 -16 111 -35 23 -11 42
-23 42 -27 0 -5 23 -20 52 -35 29 -15 46 -27 38 -27 -7 0 -10 -3 -6 -7 4 -4
49 -8 99 -8 82 0 99 -4 158 -31 44 -21 77 -46 103 -77 33 -40 45 -47 114 -66
42 -11 138 -27 212 -36 119 -13 192 -25 268 -41 l22 -4 0 430 0 430 -180 0
-180 0 -2 -27 c-4 -84 5 -139 29 -171 13 -18 28 -46 33 -62 7 -24 4 -32 -21
-54 -16 -14 -40 -26 -54 -26 -14 0 -28 -7 -31 -15 -4 -8 -10 -13 -14 -10 -5 3
-13 -2 -18 -11 -9 -16 -10 -16 -19 2 -6 10 -13 43 -16 73 -4 29 -8 55 -10 57
-1 2 -25 -7 -52 -20 -27 -13 -55 -22 -62 -19 -21 8 -20 70 3 117 15 32 18 56
7 56 -14 0 -46 78 -40 94 5 13 -1 16 -33 16 l-40 0 0 -43 c0 -23 4 -58 10 -77
5 -18 6 -36 2 -39 -12 -10 -33 -76 -24 -79 11 -3 -9 -82 -20 -82 -4 0 -8 -10
-8 -21 0 -21 -3 -21 -77 -14 -45 4 -84 13 -93 21 -10 10 -10 14 -2 14 21 0 13
48 -10 67 -30 25 -59 79 -52 98 6 15 -25 75 -39 75 -4 0 -17 9 -29 20 -12 11
-30 20 -39 20 -10 0 -21 9 -24 20 -3 11 -13 20 -22 20 -12 0 -14 -9 -11 -40 3
-33 0 -40 -14 -40 -19 0 -24 -15 -8 -25 15 -9 12 -35 -4 -35 -24 0 -66 26 -56
36 5 5 0 28 -12 57 l-21 47 -1000 0 c-550 0 -998 -2 -996 -4z m3147 -116 c-3
-35 -18 -41 -18 -7 0 21 7 37 17 37 2 0 2 -13 1 -30z m2 -66 c0 -8 -4 -12 -10
-9 -5 3 -10 13 -10 21 0 8 5 12 10 9 6 -3 10 -13 10 -21z m2 -54 c5 -36 -7
-50 -16 -17 -8 31 -7 47 3 47 5 0 11 -14 13 -30z"/>
<path d="M2784 1338 c9 -13 19 -30 23 -38 4 -8 15 -24 25 -34 22 -24 23 -40 3
-60 -8 -8 -15 -26 -15 -40 0 -15 -5 -35 -12 -46 -7 -10 -9 -22 -6 -25 8 -8 48
31 48 45 0 6 7 13 15 16 8 4 15 15 15 25 0 13 7 19 23 19 12 0 31 8 42 16 19
14 19 16 3 28 -21 16 -41 63 -39 94 1 21 -3 22 -70 22 l-71 0 16 -22z"/>
<path d="M72 1320 c0 -14 2 -19 5 -12 2 6 2 18 0 25 -3 6 -5 1 -5 -13z"/>
<path d="M216 1325 c-11 -8 -17 -18 -13 -21 10 -11 37 4 37 21 0 18 0 18 -24
0z"/>
<path d="M390 1290 c-6 -11 -8 -20 -6 -20 3 0 10 9 16 20 6 11 8 20 6 20 -3 0
-10 -9 -16 -20z"/>
<path d="M95 1290 c-3 -5 -1 -10 4 -10 6 0 11 5 11 10 0 6 -2 10 -4 10 -3 0
-8 -4 -11 -10z"/>
<path d="M353 1256 c7 -14 13 -23 15 -21 7 6 -9 45 -18 45 -4 0 -3 -11 3 -24z"/>
<path d="M163 1263 c-18 -7 -16 -20 2 -20 8 0 15 6 15 14 0 7 -1 13 -2 12 -2
0 -9 -3 -15 -6z"/>
<path d="M286 1263 c-9 -9 -7 -33 3 -33 12 0 22 28 12 34 -5 3 -11 3 -15 -1z"/>
<path d="M648 1248 c19 -19 24 -21 32 -9 7 12 11 12 24 2 9 -8 16 -18 16 -23
0 -7 -4 -7 -13 0 -8 7 -18 6 -32 -5 -19 -15 -19 -15 4 -8 16 5 21 4 17 -4 -4
-6 -4 -11 1 -11 4 -1 31 -8 58 -16 l50 -14 -59 4 c-33 3 -68 0 -79 -5 -22 -13
-38 -2 -17 11 10 7 -1 10 -37 10 -31 0 -53 5 -57 13 -3 6 -3 -1 0 -18 l6 -30
-25 28 c-30 33 -40 35 -32 5 6 -22 5 -22 -7 -3 -18 28 -38 29 -39 3 -1 -22 -1
-22 -9 2 -4 14 -8 19 -9 12 -1 -10 -6 -10 -21 -2 -16 9 -18 8 -14 -5 4 -10 0
-15 -14 -15 -12 0 -22 9 -25 21 -9 33 -27 12 -29 -34 l-1 -42 -6 44 c-3 25
-11 46 -16 48 -16 5 -10 -92 6 -110 12 -13 15 -12 27 7 12 19 12 18 7 -14 -4
-19 -9 -44 -11 -55 -3 -11 -2 -16 3 -10 9 12 28 13 39 3 4 -4 13 -3 21 3 10 9
13 7 13 -7 0 -16 2 -17 10 -4 9 13 10 13 10 0 0 -12 2 -13 9 -1 7 11 10 9 16
-8 3 -11 13 -21 21 -21 8 0 14 -4 14 -9 0 -5 3 -18 7 -28 6 -15 5 -16 -9 -5
-14 11 -17 10 -21 -5 -4 -16 -5 -16 -6 2 -1 17 -3 18 -11 5 -6 -9 -10 -11 -10
-3 0 7 -7 10 -17 7 -14 -5 -15 -4 -4 4 12 9 12 13 -2 27 -14 13 -17 14 -17 2
0 -8 -7 -20 -15 -27 -13 -11 -15 -8 -15 16 0 20 -3 25 -9 15 -6 -9 -11 -10
-15 -2 -5 8 -14 4 -26 -11 l-19 -23 -2 35 -1 35 -8 -30 c-7 -28 -8 -28 -9 -5
-2 29 -20 65 -21 40 0 -13 -1 -13 -10 0 -8 12 -10 12 -11 -5 l0 -20 -8 20 c-5
11 -7 23 -4 27 2 4 -3 5 -11 2 -8 -3 -17 -17 -21 -32 l-7 -27 -13 35 c-10 27
-14 30 -14 13 -1 -12 -6 -25 -12 -28 -6 -4 -10 -1 -8 6 4 31 -2 49 -16 49 -8
0 -15 -6 -15 -14 0 -8 -7 -16 -14 -19 -10 -4 -13 -1 -10 7 8 20 -12 28 -26 11
-16 -19 -30 -19 -30 0 0 8 -5 24 -12 34 -9 15 -7 24 10 46 19 24 23 25 28 10
4 -10 1 -21 -7 -27 -11 -7 -9 -8 6 -6 21 4 22 14 10 62 -5 19 -4 27 2 23 6 -4
14 0 17 9 3 8 10 13 15 10 8 -5 26 23 19 29 -10 9 -71 -10 -75 -24 -10 -26
-25 -41 -35 -35 -6 4 -5 9 2 14 14 9 6 40 -10 40 -16 0 -14 -487 3 -493 9 -4
9 -6 0 -6 -10 -1 -13 -82 -13 -371 l0 -370 525 0 c342 0 526 3 527 10 4 31 1
34 -37 34 -37 1 -40 3 -48 39 -8 33 -6 42 10 58 19 19 20 19 66 -7 39 -21 45
-29 36 -40 -9 -11 -8 -14 5 -14 9 0 16 -4 16 -10 0 -5 7 -10 16 -10 9 0 21
-13 27 -30 l11 -30 1160 0 1160 0 -22 20 c-12 11 -35 20 -54 20 -18 0 -52 9
-75 20 -27 12 -43 15 -43 8 0 -6 -11 -1 -25 12 -15 14 -41 25 -67 27 -50 5
-108 28 -108 42 0 6 -10 11 -23 11 -13 0 -27 4 -33 9 -15 14 -136 51 -146 45
-5 -3 -20 1 -33 10 -13 9 -36 16 -50 16 -24 0 -25 2 -19 40 5 32 3 40 -9 40
-8 0 -17 -7 -21 -15 -7 -19 -26 -20 -26 -1 0 14 -29 30 -38 21 -3 -3 0 -5 6
-5 7 0 12 -7 12 -15 0 -18 -24 -20 -38 -2 -12 14 7 47 27 47 6 0 11 5 11 10 0
6 -5 10 -11 10 -7 0 -18 8 -26 17 -13 17 -14 16 -9 -6 2 -13 1 -34 -4 -47 -8
-20 -16 -24 -55 -24 -25 0 -45 5 -45 11 0 5 4 8 9 4 5 -3 12 -1 15 4 9 14 -17
8 -45 -11 -20 -13 -28 -13 -42 -3 -18 13 -24 31 -8 20 5 -3 12 -1 15 4 4 5 2
12 -3 15 -5 4 -13 2 -16 -4 -5 -8 -12 -7 -23 2 -13 11 -15 11 -10 -4 10 -24
-19 -31 -48 -11 -17 11 -24 12 -22 3 2 -7 -3 -15 -11 -18 -10 -3 -11 0 -5 9 7
12 5 12 -9 0 -15 -12 -21 -9 -18 12 0 4 -4 7 -9 7 -6 0 -8 -11 -4 -25 l6 -25
-89 0 c-62 0 -95 4 -110 15 -12 8 -28 12 -36 9 -8 -3 -21 2 -30 10 -17 18 -42
22 -32 6 3 -6 -1 -10 -9 -10 -9 0 -16 4 -16 8 0 10 1 9 -88 13 -45 2 -67 8
-79 21 -20 22 -10 24 11 2 15 -14 16 -14 16 1 0 9 4 14 9 11 5 -4 7 3 4 14 -3
11 -10 20 -16 20 -5 0 -29 16 -53 35 -24 20 -53 35 -68 35 -16 0 -26 6 -26 15
0 12 -5 12 -41 0 -23 -8 -59 -15 -80 -15 -30 0 -37 -3 -33 -15 7 -18 -24 -26
-86 -22 -33 2 -46 7 -48 19 -5 27 17 60 38 55 15 -4 15 0 -6 31 -34 50 -47
104 -35 149 6 20 7 41 4 47 -3 6 -3 8 2 4 4 -4 21 9 36 29 33 41 34 44 15 37
-11 -4 -13 0 -9 17 4 13 8 18 11 11 2 -7 8 -10 13 -6 5 3 9 -1 9 -10 0 -13 5
-12 40 1 22 9 37 20 33 26 -4 6 0 8 11 4 28 -11 35 0 26 40 -6 26 -5 40 3 45
7 5 8 8 2 8 -6 0 -16 -5 -23 -12 -9 -9 -12 -9 -12 1 0 7 -5 9 -11 5 -6 -3 -9
-15 -6 -25 3 -12 1 -17 -5 -13 -7 5 -9 -2 -6 -19 3 -15 1 -24 -3 -21 -13 8
-11 46 5 75 13 25 12 26 -7 21 -11 -3 -18 -1 -14 4 3 5 -2 18 -10 29 -12 15
-14 16 -10 3 3 -9 1 -19 -6 -22 -8 -3 -7 -9 6 -19 23 -19 22 -30 -3 -15 -11 7
-20 21 -20 30 0 10 -7 18 -15 18 -8 0 -15 7 -15 16 0 11 -5 14 -16 10 -9 -4
-23 -1 -31 6 -12 10 -13 7 -7 -18 4 -17 3 -26 -2 -21 -9 8 -10 12 -13 39 0 6
-4 9 -7 5 -3 -3 -15 3 -27 13 -11 11 -23 17 -27 15 -5 -3 -11 3 -14 12 -4 9
-1 20 6 25 9 5 8 8 -6 8 -15 0 -17 -5 -12 -27 7 -27 6 -27 -13 5 -12 17 -25
32 -31 32 -5 0 -9 6 -8 13 2 7 -9 13 -24 15 -16 2 -28 7 -28 12 0 5 -7 7 -15
4 -9 -4 -15 0 -15 7 -1 10 -5 9 -14 -4 -12 -15 -15 -15 -26 -2 -7 8 -16 13
-20 10 -5 -3 -11 -1 -15 5 -4 6 -10 8 -15 5 -5 -3 -11 -1 -15 5 -4 6 -11 8
-16 5 -5 -4 -9 -2 -9 3 0 5 -21 15 -47 22 -27 6 -55 14 -63 17 -29 11 -37 11
-37 -3 0 -10 4 -11 13 -3 7 6 14 6 18 1 10 -16 -33 -21 -59 -8 -14 7 -22 15
-20 18 3 3 -12 8 -34 12 -21 3 -46 9 -55 12 -9 3 -16 1 -16 -4 0 -6 6 -12 13
-15 6 -2 -1 -2 -18 1 -16 3 -40 6 -52 6 -12 1 -25 4 -29 9 -4 4 -12 7 -18 7
-6 0 0 -10 12 -22z m156 -14 c8 -22 -1 -34 -27 -34 -29 0 -53 15 -38 24 5 4
19 1 30 -6 11 -7 24 -8 28 -4 4 5 2 11 -4 13 -15 5 -18 23 -4 23 5 0 12 -7 15
-16z m-447 -71 c-3 -10 -5 -4 -5 12 0 17 2 24 5 18 2 -7 2 -21 0 -30z m548
-20 c11 -15 15 -15 29 -4 11 9 16 10 16 2 0 -21 -43 -30 -57 -12 -7 9 -13 19
-13 24 0 12 12 8 25 -10z m118 -45 c11 -29 -3 -20 -15 10 l-11 27 -7 -25 c-10
-30 -12 -5 -4 28 l7 23 11 -23 c7 -13 15 -31 19 -40z m-268 42 c4 -6 -8 -10
-29 -10 -20 0 -36 5 -36 10 0 6 13 10 29 10 17 0 33 -4 36 -10z m417 3 c-6 -2
-10 -9 -7 -14 4 -5 -1 -6 -10 -2 -13 5 -14 7 -3 14 7 5 18 8 23 8 6 0 4 -3 -3
-6z m45 -14 c-13 -7 -16 -17 -11 -32 3 -12 3 -19 -1 -15 -4 4 -9 19 -10 33 -3
20 1 25 18 25 20 -1 21 -1 4 -11z m-816 -26 c-8 -15 -10 -15 -11 -2 0 17 10
32 18 25 2 -3 -1 -13 -7 -23z m-31 -43 l-11 -25 6 25 c2 14 5 34 6 45 2 19 2
19 6 0 2 -12 -1 -32 -7 -45z m759 33 c0 -24 -2 -25 -8 -8 -7 16 -9 14 -14 -14
-10 -48 -9 -81 3 -81 6 0 10 5 10 10 0 19 17 10 29 -16 10 -23 10 -25 -9 -19
-18 6 -20 3 -15 -17 4 -17 -1 -31 -19 -51 -21 -23 -25 -24 -29 -9 -4 14 -6 13
-12 -5 -4 -13 -14 -23 -21 -23 -8 0 -14 -9 -14 -21 0 -11 -4 -18 -9 -15 -5 4
-12 0 -14 -6 -3 -8 -6 -6 -6 4 -1 15 -5 16 -27 7 -34 -12 -37 -8 -24 27 11 28
12 28 23 9 19 -31 32 -27 51 15 11 26 22 37 32 33 7 -3 14 0 14 7 0 6 4 9 9 6
13 -9 21 48 11 82 -4 17 -6 33 -2 36 3 3 2 6 -2 6 -3 0 -11 -10 -16 -22 -8
-22 -9 -22 -9 5 -1 20 4 27 18 27 13 0 20 9 25 30 7 38 26 39 25 3z m99 2 c-3
-3 -9 2 -12 12 -6 14 -5 15 5 6 7 -7 10 -15 7 -18z m-514 -1 c17 -16 21 -34 9
-34 -11 0 -40 20 -29 20 5 0 3 7 -4 15 -17 20 4 20 24 -1z m89 -27 c-3 -4 -10
-3 -17 2 -7 6 -16 8 -19 4 -4 -3 -7 0 -7 9 0 8 3 18 7 21 8 9 42 -25 36 -36z
m462 32 c11 -17 -1 -21 -15 -4 -8 9 -8 15 -2 15 6 0 14 -5 17 -11z m-713 -21
c-7 -7 -12 -8 -12 -2 0 14 12 26 19 19 2 -3 -1 -11 -7 -17z m108 10 c0 -4 -4
-8 -9 -8 -6 0 -12 4 -15 8 -3 5 1 9 9 9 8 0 15 -4 15 -9z m190 -2 c0 -3 -4 -8
-10 -11 -5 -3 -10 -1 -10 4 0 6 5 11 10 11 6 0 10 -2 10 -4z m110 0 c0 -3 -4
-8 -10 -11 -5 -3 -10 -1 -10 4 0 6 5 11 10 11 6 0 10 -2 10 -4z m-526 -28 c-3
-5 -12 -4 -20 3 -19 16 -18 18 6 12 11 -3 17 -9 14 -15z m849 -3 c4 -8 3 -16
-1 -19 -4 -3 -9 4 -9 15 -2 23 3 25 10 4z m-123 -25 c0 -5 -9 -10 -20 -10 -11
0 -20 5 -20 10 0 6 9 10 20 10 11 0 20 -4 20 -10z m30 0 c0 -5 -2 -10 -4 -10
-3 0 -8 5 -11 10 -3 6 -1 10 4 10 6 0 11 -4 11 -10z m49 -27 c0 -11 -3 -13 -6
-5 -2 6 -9 10 -14 6 -5 -3 -9 0 -9 5 0 6 7 11 15 11 8 0 15 -8 14 -17z m-649
-29 c0 -2 -7 -4 -15 -4 -8 0 -15 4 -15 10 0 5 7 7 15 4 8 -4 15 -8 15 -10z
m467 -6 c-3 -8 -6 -5 -6 6 -1 11 2 17 5 13 3 -3 4 -12 1 -19z m295 0 c-3 -14
-2 -19 6 -14 8 5 12 -4 11 -31 0 -30 -2 -34 -9 -18 -8 19 -9 19 -9 -2 -1 -13
4 -23 10 -23 5 0 7 -5 3 -11 -5 -8 -10 -6 -16 5 -5 9 -16 16 -23 16 -10 0 -15
10 -14 28 0 23 2 24 8 8 7 -18 8 -18 14 -2 4 10 7 29 7 42 0 13 4 24 9 24 5 0
7 -10 3 -22z m117 -17 c-6 -2 -16 2 -22 9 -9 10 -9 11 1 6 7 -4 12 -2 12 6 0
9 3 9 10 -2 6 -10 6 -16 -1 -19z m-689 4 c-7 -9 -15 -13 -19 -10 -3 3 1 10 9
15 21 14 24 12 10 -5z m410 5 c0 -6 -6 -13 -14 -16 -17 -7 -28 -42 -15 -50 6
-3 5 -11 -2 -20 -12 -15 -2 -19 19 -6 8 5 10 16 6 27 -5 13 -4 16 4 11 7 -4
12 -14 12 -23 0 -10 6 -13 18 -8 13 4 14 3 6 -5 -6 -6 -22 -13 -35 -15 -13 -1
-33 -6 -44 -10 -11 -4 -16 -3 -10 2 6 4 10 27 11 50 1 40 17 73 35 73 5 0 9
-5 9 -10z m40 -17 c0 -9 6 -13 14 -10 10 4 13 1 9 -9 -3 -7 0 -14 6 -14 6 0
11 -12 11 -26 0 -14 4 -23 10 -19 6 4 8 11 5 16 -3 5 0 6 8 3 8 -3 13 -15 12
-28 -2 -13 5 -27 15 -34 15 -9 19 -7 24 11 7 27 19 15 34 -33 l12 -35 -20 24
c-27 31 -25 22 5 -30 22 -40 25 -55 25 -156 l0 -113 -30 0 c-24 0 -30 4 -30
21 0 20 -1 20 -29 3 -17 -10 -28 -20 -26 -24 2 -3 -27 -3 -64 1 -76 7 -119 30
-153 83 -11 17 -17 23 -14 13 3 -10 2 -16 -2 -13 -4 2 -9 30 -10 61 -3 66 21
127 64 166 34 31 117 60 136 48 7 -5 22 -9 33 -9 17 0 17 2 -5 13 -17 9 -24
20 -22 35 3 23 -13 31 -21 10 -3 -7 -5 1 -4 18 0 17 -4 37 -8 44 -5 9 -4 11 3
6 7 -4 12 -14 12 -23z m83 10 c-7 -3 -13 -13 -13 -24 0 -10 -4 -19 -8 -19 -15
0 -9 35 7 47 9 6 18 9 21 6 3 -3 -1 -8 -7 -10z m92 -46 c-1 -31 2 -54 5 -52 8
5 4 -74 -5 -82 -4 -5 -4 3 0 16 5 16 4 21 -4 17 -6 -4 -11 -5 -11 -2 0 2 -3
13 -6 23 -5 15 -4 16 6 3 9 -12 10 -9 4 15 -9 35 -13 107 -7 118 11 18 18 -6
18 -56z m-815 32 c0 -6 -4 -7 -10 -4 -5 3 -10 11 -10 16 0 6 5 7 10 4 6 -3 10
-11 10 -16z m88 -4 c-3 -3 -9 2 -12 12 -6 14 -5 15 5 6 7 -7 10 -15 7 -18z
m148 -53 c-13 -12 -17 8 -9 44 l8 39 3 -39 c2 -21 1 -41 -2 -44z m634 31 c0
-8 -3 -12 -7 -10 -5 3 -9 -6 -9 -19 -2 -23 -1 -24 12 -7 13 16 14 15 8 -12 -4
-16 -11 -34 -15 -39 -15 -16 -10 -26 9 -20 14 5 14 4 2 -4 -8 -6 -18 -8 -22
-6 -12 8 -10 44 3 44 8 0 8 4 -1 15 -6 8 -9 19 -5 25 3 5 1 10 -4 10 -12 0
-15 33 -5 43 10 10 34 -4 34 -20z m44 11 c3 -8 2 -12 -4 -9 -6 3 -10 10 -10
16 0 14 7 11 14 -7z m-589 -24 c-4 -11 -2 -20 4 -20 6 0 11 8 12 18 0 11 2 12
6 4 3 -7 -3 -22 -12 -32 -9 -10 -14 -24 -9 -31 4 -8 3 -10 -5 -5 -6 4 -9 16
-6 27 4 11 2 19 -4 19 -8 0 -7 7 1 20 7 11 14 20 16 20 2 0 0 -9 -3 -20z
m-115 -5 c0 -8 -4 -15 -10 -15 -5 0 -7 7 -4 15 4 8 8 15 10 15 2 0 4 -7 4 -15z
m59 -28 c1 -5 -3 -5 -9 -2 -5 3 -10 16 -9 28 0 21 1 21 9 2 5 -11 9 -24 9 -28z
m474 -25 c-5 -12 -7 -12 -15 2 -11 20 1 44 12 25 5 -6 6 -19 3 -27z m212 18
c3 -5 2 -10 -4 -10 -5 0 -13 5 -16 10 -3 6 -2 10 4 10 5 0 13 -4 16 -10z
m-1148 -182 c-3 -8 -6 -5 -6 6 -1 11 2 17 5 13 3 -3 4 -12 1 -19z m1032 -266
c-5 -2 -17 2 -26 10 -15 11 -16 11 -10 -4 4 -12 2 -15 -8 -12 -7 3 -16 12 -19
19 -3 9 0 12 10 8 7 -3 14 0 14 6 0 7 10 5 24 -6 13 -10 20 -20 15 -21z m-217
-27 c40 0 79 3 86 8 7 6 12 5 12 -2 0 -6 10 -10 23 -8 14 1 22 -3 22 -13 0 -8
-10 -15 -22 -16 -12 -1 -21 2 -20 5 1 3 -2 7 -8 9 -5 1 -10 -1 -10 -5 0 -5 -4
-14 -9 -22 -6 -10 -10 -10 -16 -1 -4 7 -37 11 -91 11 -54 0 -86 4 -91 12 -6 9
-10 8 -18 -3 -8 -12 -10 -9 -10 13 0 27 2 28 30 22 22 -5 30 -3 30 7 0 10 2
10 9 -1 7 -10 31 -15 83 -16z m266 -5 c2 -30 2 -30 -48 -30 -54 0 -69 19 -30
40 19 10 25 4 21 -22 0 -5 4 -8 10 -8 6 0 9 7 5 15 -3 9 0 15 10 15 8 0 12 5
9 10 -3 6 0 10 7 10 8 0 15 -13 16 -30z m60 12 c7 -5 10 -16 6 -26 -5 -14 -9
-15 -15 -4 -7 11 -11 10 -19 -2 -8 -12 -10 -9 -10 13 0 27 14 34 38 19z m206
-5 c4 4 4 0 0 -10 -3 -10 -1 -17 5 -17 6 0 11 5 11 10 0 19 16 10 17 -10 1
-16 -2 -18 -20 -11 -12 4 -28 6 -34 4 -9 -3 -13 5 -13 22 0 22 3 25 13 16 8
-6 17 -8 21 -4z m-73 -14 c-15 -12 -15 -13 2 -7 9 3 17 1 17 -5 0 -6 -16 -11
-35 -11 -19 0 -35 -4 -35 -10 0 -5 -5 -10 -11 -10 -5 0 -7 5 -4 10 3 6 -1 10
-9 10 -9 0 -16 4 -16 8 0 19 27 31 66 30 36 -2 40 -4 25 -15z m-104 -15 c-3
-8 -6 -5 -6 6 -1 11 2 17 5 13 3 -3 4 -12 1 -19z m258 0 c5 -4 0 -6 -12 -6
-13 1 -19 7 -16 15 3 8 8 10 12 6 3 -4 10 -11 16 -15z m145 -249 c0 -14 -17
-10 -23 5 -4 10 -1 13 9 9 7 -3 14 -9 14 -14z m620 -19 c0 -5 -7 -10 -15 -10
-8 0 -15 5 -15 10 0 6 7 10 15 10 8 0 15 -4 15 -10z"/>
<path d="M1183 773 c-63 -12 -95 -115 -53 -173 56 -78 182 -53 205 42 9 37
-12 101 -32 94 -8 -3 -12 -2 -9 3 3 5 0 14 -7 19 -14 12 -57 5 -57 -10 0 -5
-6 -3 -14 4 -10 9 -11 15 -2 20 12 8 6 8 -31 1z m90 -33 c-3 -11 -7 -20 -9
-20 -2 0 -4 9 -4 20 0 11 4 20 9 20 5 0 7 -9 4 -20z m-38 -30 c4 -6 10 -8 15
-5 13 8 24 -15 12 -27 -6 -6 -8 -17 -5 -24 6 -17 -14 -44 -34 -44 -7 0 -18 10
-23 23 -5 12 -9 18 -9 13 -1 -5 -8 -3 -16 4 -8 7 -12 16 -9 22 3 5 11 4 19 -2
16 -13 35 -5 35 13 0 8 -3 7 -9 -2 -11 -16 -31 -6 -31 16 0 9 6 13 15 9 8 -3
15 -1 15 4 0 13 17 13 25 0z"/>
<path d="M1116 368 c3 -4 11 -5 19 -1 21 7 19 12 -4 10 -11 0 -18 -5 -15 -9z"/>
<path d="M1160 370 c0 -5 5 -10 11 -10 5 0 7 5 4 10 -3 6 -8 10 -11 10 -2 0
-4 -4 -4 -10z"/>
<path d="M1195 370 c-3 -5 -1 -10 4 -10 6 0 11 5 11 10 0 6 -2 10 -4 10 -3 0
-8 -4 -11 -10z"/>
<path d="M1230 370 c0 -5 5 -10 10 -10 6 0 10 5 10 10 0 6 -4 10 -10 10 -5 0
-10 -4 -10 -10z"/>
<path d="M1266 371 c-3 -5 1 -11 9 -14 9 -4 12 -1 8 9 -6 16 -10 17 -17 5z"/>
<path d="M1330 370 c0 -5 5 -10 10 -10 6 0 10 5 10 10 0 6 -4 10 -10 10 -5 0
-10 -4 -10 -10z"/>
<path d="M1390 370 c0 -5 5 -10 10 -10 6 0 10 5 10 10 0 6 -4 10 -10 10 -5 0
-10 -4 -10 -10z"/>
<path d="M1600 371 c0 -6 5 -13 10 -16 6 -3 10 1 10 9 0 9 -4 16 -10 16 -5 0
-10 -4 -10 -9z"/>
<path d="M1635 370 c-3 -5 -1 -10 4 -10 6 0 11 5 11 10 0 6 -2 10 -4 10 -3 0
-8 -4 -11 -10z"/>
<path d="M420 1239 c0 -5 5 -7 10 -4 6 3 10 8 10 11 0 2 -4 4 -10 4 -5 0 -10
-5 -10 -11z"/>
<path d="M211 1220 c-1 -21 -3 -22 -12 -10 -8 11 -12 12 -16 2 -2 -6 -8 -10
-13 -7 -4 3 -5 -5 -2 -17 5 -19 7 -20 10 -5 2 9 8 17 13 17 5 0 9 -8 10 -17 0
-13 3 -11 10 6 5 14 8 32 6 40 -3 9 -5 5 -6 -9z"/>
<path d="M230 1230 c0 -6 7 -10 15 -10 8 0 15 -6 15 -13 0 -8 6 -14 14 -14 8
0 12 6 9 12 -6 16 -53 38 -53 25z"/>
<path d="M625 1230 c3 -5 8 -10 11 -10 2 0 4 5 4 10 0 6 -5 10 -11 10 -5 0 -7
-4 -4 -10z"/>
<path d="M450 1220 c0 -5 7 -10 15 -10 8 0 15 5 15 10 0 6 -7 10 -15 10 -8 0
-15 -4 -15 -10z"/>
<path d="M271 1165 c-1 -11 -6 -27 -12 -35 -9 -12 -10 -11 -6 8 3 12 1 20 -4
16 -5 -3 -9 -13 -10 -22 -1 -11 -4 -8 -10 8 l-8 25 2 -24 c2 -29 33 -37 47
-13 8 14 10 13 10 -8 1 -14 4 -20 6 -13 3 6 1 26 -5 45 -6 21 -10 26 -10 13z"/>
<path d="M191 1124 c0 -11 3 -14 6 -6 3 7 2 16 -1 19 -3 4 -6 -2 -5 -13z"/>
<path d="M1737 1103 c-3 -5 -12 -31 -20 -60 -14 -46 -14 -52 0 -57 23 -9 185
-43 203 -43 8 0 24 -3 35 -6 21 -7 22 -3 16 56 -1 4 -10 3 -20 -3 -11 -5 -28
-10 -38 -9 -10 0 -3 5 15 10 17 5 32 14 32 19 0 4 8 11 18 14 9 3 -28 4 -83 1
-55 -2 -116 -1 -136 3 -33 6 -36 9 -28 30 10 26 29 30 29 5 0 -9 3 -14 6 -10
9 9 -4 57 -16 57 -5 0 -11 -3 -13 -7z"/>
<path d="M2009 1011 c7 -5 11 -14 7 -20 -5 -7 -1 -9 8 -5 20 8 20 20 0 28 -23
9 -31 7 -15 -3z"/>
<path d="M2123 979 c15 -9 16 -13 6 -26 -12 -13 -14 -13 -20 4 -7 16 -8 15 -8
-4 -1 -22 2 -23 87 -23 79 1 85 2 68 15 -11 8 -36 15 -56 15 -20 0 -45 7 -56
15 -10 8 -23 14 -29 14 -5 0 -2 -4 8 -10z"/>
<path d="M1630 906 c0 -2 7 -6 15 -10 8 -3 15 -1 15 4 0 6 -7 10 -15 10 -8 0
-15 -2 -15 -4z"/>
<path d="M1710 887 c0 -9 -3 -23 -7 -33 -4 -10 -2 -15 3 -11 12 7 41 -9 33
-18 -4 -3 -18 -1 -33 5 -23 8 -25 13 -16 29 7 13 7 22 0 26 -5 3 -10 -3 -10
-14 0 -24 -16 -36 -23 -19 -4 9 -6 9 -6 1 -1 -6 14 -20 33 -31 18 -11 46 -36
61 -56 24 -32 27 -44 28 -116 0 -67 3 -81 18 -85 10 -3 20 -14 22 -23 3 -9 5
32 6 91 1 69 5 106 11 102 18 -11 11 3 -15 31 -30 33 -32 65 -5 89 11 10 20
23 20 29 0 6 -4 5 -9 -3 -6 -8 -14 -10 -22 -5 -8 5 -23 10 -34 11 -15 2 -17 1
-6 -6 13 -8 25 -41 16 -41 -2 0 -17 14 -34 31 -20 20 -31 25 -31 16z m35 -87
c5 -8 12 -7 23 2 15 12 16 11 3 -5 -11 -14 -17 -15 -30 -5 -9 7 -18 14 -20 15
-2 2 1 3 7 3 6 0 14 -5 17 -10z m57 -49 c2 -17 1 -28 -3 -25 -4 2 -9 -1 -12
-8 -2 -7 -2 -1 0 14 2 14 -1 29 -6 33 -7 4 -9 -1 -5 -12 5 -15 4 -15 -4 -3 -8
10 -8 18 0 27 14 18 25 9 30 -26z"/>
<path d="M1854 892 c3 -5 0 -13 -6 -15 -9 -4 -10 -6 -1 -6 17 -1 25 16 12 25
-7 4 -9 3 -5 -4z"/>
<path d="M1635 881 c3 -5 1 -12 -5 -16 -13 -8 -13 -25 0 -25 6 0 10 6 10 14 0
8 5 16 12 18 7 3 5 7 -6 11 -9 4 -15 3 -11 -2z"/>
<path d="M1920 871 c0 -4 15 -13 33 -19 23 -9 25 -11 7 -8 -14 2 -33 7 -44 11
-17 7 -17 6 -5 -16 7 -13 12 -27 11 -32 -1 -4 10 -4 25 -1 16 4 24 3 20 -2 -4
-4 -20 -10 -35 -12 -15 -2 -31 -11 -36 -20 -5 -9 -9 -66 -9 -126 1 -143 0
-136 21 -136 15 0 17 12 18 104 1 94 4 109 28 150 15 25 31 46 37 46 6 0 7 5
3 12 -4 7 -3 8 4 4 6 -4 24 0 40 8 16 8 33 12 37 8 5 -4 5 -1 0 7 -5 8 -17 11
-37 7 -20 -4 -30 -1 -34 9 -5 11 -10 12 -25 2 -14 -9 -21 -9 -31 1 -14 14 -28
16 -28 3z m57 -47 c-3 -3 -12 -4 -19 -1 -8 3 -5 6 6 6 11 1 17 -2 13 -5z m-40
-61 c-2 -2 -14 -6 -27 -8 -18 -3 -20 -2 -10 10 6 8 18 11 26 8 8 -3 13 -7 11
-10z"/>
<path d="M2105 870 c-19 -7 -19 -7 3 -14 26 -9 41 -1 26 13 -5 5 -18 5 -29 1z"/>
<path d="M2155 859 c-4 -6 -5 -12 -2 -15 2 -3 7 2 10 11 7 17 1 20 -8 4z"/>
<path d="M2220 850 c0 -5 5 -10 11 -10 5 0 7 5 4 10 -3 6 -8 10 -11 10 -2 0
-4 -4 -4 -10z"/>
<path d="M2297 854 c-3 -3 -3 -12 0 -20 6 -15 -12 -20 -21 -5 -7 10 -46 3 -46
-9 0 -4 7 -11 16 -14 22 -8 26 -8 19 4 -3 6 -2 10 3 10 6 0 13 -7 16 -16 5
-14 1 -16 -25 -10 l-31 6 29 -38 c24 -31 28 -45 26 -89 -2 -64 -34 -126 -80
-154 -49 -30 -129 -35 -176 -11 l-38 20 2 -54 c2 -35 7 -54 15 -54 6 0 11 8
10 17 0 9 10 23 24 30 33 17 120 17 120 0 0 -18 56 -77 74 -77 9 0 13 -7 10
-22 -4 -23 -4 -23 6 0 12 29 5 43 -17 35 -10 -4 -14 -2 -10 4 4 6 -5 21 -19
32 -16 13 -24 26 -20 36 8 23 67 45 126 47 27 1 50 5 50 9 0 9 -36 40 -41 34
-3 -2 -6 4 -7 13 -1 9 -4 43 -8 74 -3 32 -3 65 1 75 5 10 7 21 7 26 -1 4 2 7
7 7 14 0 21 29 9 36 -7 4 -8 3 -4 -5 4 -6 0 -14 -8 -17 -9 -3 -16 -12 -16 -20
0 -8 -6 -11 -15 -8 -8 4 -13 10 -10 14 3 5 -1 11 -7 13 -8 3 -6 6 5 6 18 1 41
46 32 61 -3 5 1 11 7 13 7 3 8 6 2 6 -6 1 -13 -2 -17 -5z"/>
<path d="M2430 852 c0 -5 20 -8 44 -8 24 1 39 4 33 8 -16 11 -77 10 -77 0z"/>
<path d="M2176 839 c8 -13 44 -31 44 -22 0 4 -11 13 -25 20 -14 6 -23 7 -19 2z"/>
<path d="M2348 843 c7 -3 16 -2 19 1 4 3 -2 6 -13 5 -11 0 -14 -3 -6 -6z"/>
<path d="M2622 774 c20 -24 38 -87 38 -136 0 -21 5 -38 11 -38 20 0 49 21 49
36 0 8 7 17 16 21 11 4 12 8 4 13 -7 4 1 10 19 13 39 8 39 18 -1 41 -18 11
-41 27 -51 38 -10 10 -28 18 -42 18 -13 0 -32 3 -42 7 -17 6 -17 5 -1 -13z"/>
<path d="M1570 763 c0 -14 -2 -15 -9 -4 -20 32 -81 -38 -81 -94 0 -59 56 -115
116 -115 22 0 16 18 -8 22 -31 4 -33 42 -3 62 31 21 94 21 101 1 9 -22 24 -8
24 21 0 45 -26 90 -63 107 -46 22 -77 22 -77 0z m76 -18 c-1 -8 -8 -21 -16
-28 -10 -10 -12 -9 -6 6 3 10 6 23 6 28 0 5 4 9 9 9 5 0 8 -7 7 -15z m-142
-61 c3 -8 2 -12 -4 -9 -6 3 -10 10 -10 16 0 14 7 11 14 -7z"/>
<path d="M2065 773 c-29 -8 -56 -35 -50 -50 2 -8 1 -11 -5 -8 -14 8 -23 -56
-12 -85 23 -60 98 -90 154 -61 18 9 32 22 30 29 -1 7 3 11 9 10 25 -6 19 22
-8 36 -15 8 -22 15 -15 16 7 0 22 -5 33 -10 17 -10 19 -7 19 24 0 70 -78 120
-155 99z m-2 -42 c-2 -6 2 -11 7 -11 6 0 10 -4 10 -9 0 -6 -9 -9 -19 -8 -16 1
-18 5 -9 21 9 16 8 18 -6 13 -11 -4 -15 -3 -11 4 9 13 31 5 28 -10z m56 -5
c-8 -8 -13 -8 -16 2 -3 6 -10 9 -15 6 -6 -4 -8 -2 -5 4 4 5 16 8 28 5 15 -4
17 -8 8 -17z m16 -33 c-1 -10 2 -25 8 -33 6 -8 7 -12 3 -8 -5 4 -15 3 -23 -3
-10 -9 -13 -8 -14 2 0 8 -2 22 -4 32 -2 9 1 15 5 12 5 -3 11 -1 15 5 9 15 14
12 10 -7z m-88 -16 c6 -4 11 -16 10 -27 -1 -14 -5 -16 -13 -9 -7 6 -10 17 -7
24 3 10 -1 13 -16 10 -12 -2 -21 0 -21 6 0 10 28 8 47 -4z"/>
<path d="M2430 768 c-24 -10 -24 -10 -5 -18 18 -8 17 -9 -6 -9 -37 -1 -54 -27
-53 -78 1 -46 20 -75 64 -98 37 -19 113 -2 140 32 22 28 27 97 8 109 -6 4 -8
3 -5 -3 3 -5 -10 -15 -29 -22 -30 -11 -39 -10 -59 3 -14 9 -25 21 -25 27 0 6
-9 8 -22 4 -16 -5 -20 -4 -13 4 9 9 21 13 70 21 6 1 -1 5 -15 9 -14 4 -24 13
-22 19 1 7 1 12 0 11 -2 0 -14 -5 -28 -11z m50 -143 c13 -14 21 -25 18 -25 -2
0 -15 11 -28 25 -13 14 -21 25 -18 25 2 0 15 -11 28 -25z m-33 -22 c-4 -3 -1
-13 6 -22 10 -14 10 -14 -4 -4 -9 7 -20 9 -25 5 -4 -4 -2 1 5 11 7 9 16 17 19
17 3 0 2 -3 -1 -7z"/>
<path d="M1858 733 c7 -3 16 -2 19 1 4 3 -2 6 -13 5 -11 0 -14 -3 -6 -6z"/>
<path d="M2510 690 c0 -5 5 -10 10 -10 6 0 10 5 10 10 0 6 -4 10 -10 10 -5 0
-10 -4 -10 -10z"/>
<path d="M1499 507 c6 -8 7 -18 3 -22 -4 -5 -1 -5 6 -1 10 6 10 11 1 22 -6 8
-14 14 -16 14 -3 0 0 -6 6 -13z"/>
<path d="M2210 490 c-9 -6 -10 -10 -3 -10 6 0 15 5 18 10 8 12 4 12 -15 0z"/>
<path d="M2051 434 c0 -11 3 -14 6 -6 3 7 2 16 -1 19 -3 4 -6 -2 -5 -13z"/>
<path d="M2522 423 c-49 -17 -47 -27 6 -29 31 -1 36 -4 34 -20 -3 -18 -3 -18
10 -2 7 10 22 19 33 21 11 1 29 8 40 15 17 10 18 13 5 22 -21 14 -78 11 -128
-7z"/>
<path d="M2035 400 c-3 -5 -1 -10 4 -10 6 0 11 5 11 10 0 6 -2 10 -4 10 -3 0
-8 -4 -11 -10z"/>
<path d="M2060 406 c0 -2 7 -7 16 -10 8 -3 12 -2 9 4 -6 10 -25 14 -25 6z"/>
<path d="M2760 403 c-35 -7 -50 -22 -49 -47 2 -20 2 -20 6 2 5 27 17 28 51 1
l27 -21 6 24 c15 50 14 51 -41 41z"/>
<path d="M2275 390 c3 -5 8 -10 11 -10 2 0 4 5 4 10 0 6 -5 10 -11 10 -5 0 -7
-4 -4 -10z"/>
<path d="M2418 393 c7 -3 16 -2 19 1 4 3 -2 6 -13 5 -11 0 -14 -3 -6 -6z"/>
<path d="M2446 383 c-6 -14 -5 -15 5 -6 7 7 10 15 7 18 -3 3 -9 -2 -12 -12z"/>
<path d="M2323 375 c0 -8 4 -15 9 -15 4 0 8 4 8 9 0 6 -4 12 -8 15 -5 3 -9 -1
-9 -9z"/>
<path d="M2385 370 c-3 -5 -1 -10 4 -10 6 0 11 5 11 10 0 6 -2 10 -4 10 -3 0
-8 -4 -11 -10z"/>
<path d="M2068 359 c-4 -10 1 -15 13 -16 10 -1 19 3 19 8 0 6 -4 8 -9 5 -5 -4
-11 -1 -13 6 -3 8 -6 7 -10 -3z"/>
<path d="M2140 351 c0 -6 -7 -8 -15 -5 -11 5 -13 2 -9 -10 5 -13 10 -14 20 -5
7 6 17 9 21 6 4 -2 17 -1 28 4 l20 9 -20 -2 c-11 -2 -26 1 -32 5 -7 5 -13 4
-13 -2z"/>
<path d="M2405 340 c3 -5 11 -10 16 -10 6 0 7 5 4 10 -3 6 -11 10 -16 10 -6 0
-7 -4 -4 -10z"/>
<path d="M2595 340 c-4 -6 -5 -10 -3 -11 25 -6 38 -6 38 1 0 12 -29 20 -35 10z"/>
</g>
</svg>
